<?xml version="1.0"?>
<svg xmlns:rdf="http://www.w3.org/1999/02/22-rdf-syntax-ns#" xmlns="http://www.w3.org/2000/svg" xmlns:cc="http://web.resource.org/cc/" xmlns:xlink="http://www.w3.org/1999/xlink" xmlns:dc="http://purl.org/dc/elements/1.1/" xmlns:svg="http://www.w3.org/2000/svg" id="svg2" viewBox="0 0 434 435" version="1.0">
  <defs id="defs4">
    <linearGradient id="HalfTube">
      <stop id="stop27864" stop-color="#fff" offset="0"/>
      <stop id="stop27866" stop-color="#fff" stop-opacity="0" offset=".3"/>
      <stop id="stop27858" stop-color="#fff" stop-opacity="0" offset="1"/>
    </linearGradient>
    <linearGradient id="TubeGradient">
      <stop id="stop22382" stop-color="#fff" offset="0"/>
      <stop id="stop22384" stop-color="#fff" stop-opacity="0" offset=".30373"/>
      <stop id="stop22386" stop-color="#fff" stop-opacity="0" offset=".7"/>
      <stop id="stop22388" stop-color="#fff" offset="1"/>
    </linearGradient>
    <linearGradient id="linearGradient50152" y2="239.15" gradientUnits="userSpaceOnUse" y1="236.11" x2="206.25" x1="206.25">
      <stop id="stop18771" stop-color="#fff" offset="0"/>
      <stop id="stop18773" stop-color="#fff" stop-opacity="0" offset="1"/>
    </linearGradient>
    <linearGradient id="linearGradient50154" x1="662.32" xlink:href="#TubeGradient" gradientUnits="userSpaceOnUse" y1="232.12" gradientTransform="matrix(1 0 0 .87535 0 29.731)" x2="662.32" y2="243.47"/>
    <linearGradient id="linearGradient50156" x1="623.14" xlink:href="#HalfTube" gradientUnits="userSpaceOnUse" x2="621.31" y1="225.56" y2="250.06"/>
    <linearGradient id="linearGradient50158" x1="623.14" xlink:href="#HalfTube" gradientUnits="userSpaceOnUse" x2="621.69" y1="249.94" y2="225.94"/>
    <linearGradient id="linearGradient50160" x1="646.44" xlink:href="#HalfTube" gradientUnits="userSpaceOnUse" x2="636" y1="229.61" y2="248.24"/>
    <linearGradient id="linearGradient50162" x1="646.67" xlink:href="#HalfTube" gradientUnits="userSpaceOnUse" x2="639.09" y1="245.61" y2="232.64"/>
    <linearGradient id="linearGradient50164" x1="248.92" xlink:href="#TubeGradient" gradientUnits="userSpaceOnUse" y1="199" gradientTransform="matrix(1 0 0 .96172 -3.5 9.1187)" x2="248.92" y2="280.62"/>
    <linearGradient id="linearGradient50166" x1="388.25" xlink:href="#TubeGradient" gradientUnits="userSpaceOnUse" y1="223.62" gradientTransform="matrix(1 0 0 .87983 0 28.623)" x2="388.25" y2="253.97"/>
    <linearGradient id="linearGradient50168" x1="595.09" xlink:href="#TubeGradient" gradientUnits="userSpaceOnUse" x2="595.09" y1="228.34" y2="248.32"/>
    <linearGradient id="linearGradient50170" x1="264.7" xlink:href="#TubeGradient" gradientUnits="userSpaceOnUse" y1="221.47" gradientTransform="matrix(1 0 0 .87813 0 29.377)" x2="264.7" y2="256.29"/>
    <linearGradient id="linearGradient50172" x1="284.15" xlink:href="#HalfTube" gradientUnits="userSpaceOnUse" x2="268.15" y1="224.47" y2="244.31"/>
    <linearGradient id="linearGradient50174" x1="284.15" xlink:href="#HalfTube" gradientUnits="userSpaceOnUse" x2="273.67" y1="253.06" y2="230.98"/>
  </defs>
  <g id="layer1">
    <g id="g49915" transform="matrix(.70914 .70507 -.70507 .70914 64.034 -268.27)">
      <g id="g48024">
        <g id="g19694">
          <rect id="rect5740" rx="1.4286" ry="1.4286" height="17.5" width="394.91" y="229.15" x="190.8" fill="#e1e1e1"/>
          <rect id="rect7512" height="8.9286" width="394.91" y="230.22" x="190.8" fill="url(#linearGradient50152)"/>
          <rect id="rect17882" fill-opacity=".08642" height=".67857" width="394.91" y="244.97" x="190.8"/>
        </g>
        <g id="g10268" transform="matrix(.67649 0 0 1.0427 60.521 -9.8245)">
          <path id="path9363" transform="matrix(.45912 0 0 1.3761 -85.599 -88.371)" fill="#fff" d="m608.36 237.67a4.672 17.173 0 1 1 -9.34 0 4.672 17.173 0 1 1 9.34 0z"/>
          <rect id="rect9361" height="47.264" width="6.3317" y="215.07" x="185.51" fill="#fff"/>
          <path id="path9359" transform="matrix(.39155 0 0 1.3761 -50.593 -88.371)" fill="#e1e1e1" d="m608.36 237.67a4.672 17.173 0 1 1 -9.34 0 4.672 17.173 0 1 1 9.34 0z"/>
        </g>
        <g id="g14103">
          <rect id="rect9320" y="227.32" width="16.568" x="566.11" height="23.258"/>
          <g id="g13180" transform="matrix(.67649 0 0 .64228 437.79 85.477)">
            <path id="path13182" transform="matrix(.45912 0 0 1.3761 -85.599 -88.371)" d="m608.36 237.67a4.672 17.173 0 1 1 -9.34 0 4.672 17.173 0 1 1 9.34 0z"/>
            <rect id="rect13184" y="215.07" width="6.3317" x="185.51" height="47.264"/>
            <path id="path13186" transform="matrix(.39155 0 0 1.3761 -50.593 -88.371)" d="m608.36 237.67a4.672 17.173 0 1 1 -9.34 0 4.672 17.173 0 1 1 9.34 0z"/>
          </g>
          <g id="g14095" transform="matrix(.67649 0 0 .64228 454.58 85.477)">
            <path id="path14097" transform="matrix(.45912 0 0 1.3761 -85.599 -88.371)" d="m608.36 237.67a4.672 17.173 0 1 1 -9.34 0 4.672 17.173 0 1 1 9.34 0z"/>
            <rect id="rect14099" y="215.07" width="6.3317" x="185.51" height="47.264"/>
            <path id="path14101" transform="matrix(.39155 0 0 1.3761 -50.593 -88.371)" d="m608.36 237.67a4.672 17.173 0 1 1 -9.34 0 4.672 17.173 0 1 1 9.34 0z"/>
          </g>
        </g>
      </g>
      <path id="path9346" transform="matrix(.77067 0 0 .000029116 137.93 256.52)" fill="#5ea1c5" d="m608.36 237.67a4.672 17.173 0 1 1 -9.34 0 4.672 17.173 0 1 1 9.34 0z"/>
      <g id="g47956">
        <g id="g47934">
          <path id="rect14287" fill-opacity=".6" fill="#c8c8c8" d="m599.28 228.34v19.82h38.84v-0.04c0.03 0.01 0.05 0.04 0.07 0.04 0.8 0 1.43-4.44 1.43-9.91s-0.63-9.91-1.43-9.91c-0.02 0-0.04 0.03-0.07 0.04v-0.04h-38.84z"/>
          <g id="g47914">
            <g id="g47530">
              <path id="path2788" fill-rule="evenodd" d="m681.94 237.02v1h61.94l-9.32-1h-52.62z"/>
              <path id="rect16973" fill="#e1e1e1" d="m651.77 233.25c-0.66 0.12-1.16 2.08-1.16 4.44s0.5 4.28 1.16 4.4h25.45l4.75-4.06v-1l-4.75-3.78h-25.45z"/>
            </g>
            <g id="g47908">
              <path id="rect44669" opacity=".5" fill-opacity=".89506" fill="#6fbde5" d="m641.81 226.94l8.19 5.18h23.12v-2.93c0-1.25-1-2.25-2.24-2.25h-29.07zm31.31 16.44l-23.12 0.09-8.09 5.44h28.97c1.24 0 2.25-1.01 2.24-2.25v-3.28z"/>
              <g id="g47904">
                <path id="rect9338" fill-opacity=".80864" fill="#5ea1c5" d="m599.66 220.34v34.91h4.18v-0.16c0.28-0.42 0.55-1.87 0.75-3.93l37-2.04 8.41-5.65 27.09-0.09v-11.26h-27.09l-8.19-5.18-37.28-2.97c-0.19-1.82-0.43-3.08-0.69-3.47v-0.16h-4.18z"/>
                <path id="path10319" fill-opacity=".70588" fill="#3c81a7" transform="matrix(.25981 0 0 1.0159 442.99 -3.6431)" d="m608.36 237.67a4.672 17.173 0 1 1 -9.34 0 4.672 17.173 0 1 1 9.34 0z"/>
              </g>
            </g>
          </g>
        </g>
        <g id="g31931">
          <path id="path25956" opacity=".3" fill="url(#linearGradient50154)" d="m650 242.85h27.09v-9.93h-27.13l0.04 9.93z"/>
          <g id="g31887">
            <path id="path27852" opacity=".3" fill="url(#linearGradient50156)" d="m604.59 251.16l37-2.04 0.22-21.3-37.28-2.97c-0.01 0.12-0.16 26.48 0.06 26.31z"/>
            <path id="path28761" opacity=".3" fill="url(#linearGradient50158)" d="m604.59 250.1l37-2.04 0.22-19.71-37.28-2.97c-0.01 0.12-0.16 24.88 0.06 24.72z"/>
          </g>
          <g id="g31923">
            <path id="path28775" opacity=".3" fill="url(#linearGradient50160)" d="m641.59 249.12l8.41-5.65-0.03-10.41-8.16-5.28-0.22 21.34z"/>
            <path id="path29670" opacity=".3" fill="url(#linearGradient50162)" d="m641.57 248.06l8.41-5.25-0.06-9.8-8.15-5.28-0.2 20.33z"/>
          </g>
        </g>
      </g>
      <g id="g48088">
        <path id="rect5546" fill-opacity=".59877" fill="#c8c8c8" d="m249.62 221.41v34.81l34.13 0.06 0.8-2.31h302.17l4.37-5.66 8.19-0.03s0.75-3.05 0.75-9.78c0-8-0.75-10.16-0.75-10.16h-8.19l-4.31-4.72h-302.23l-0.8-2.15-34.13-0.06z"/>
        <g id="g48084">
          <path id="path31865" fill-opacity=".7716" fill="#c8c8c8" d="m242.34 199v0.12c-0.63 1.7-1.12 19.28-1.12 40.69 0 21.54 0.48 39.17 1.12 40.69v0.12h5.88c0.78-0.68 1.4-18.71 1.4-40.81 0-22.04-0.33-40.81-1.43-40.81h-5.85z"/>
          <path id="path31869" fill-opacity=".17901" transform="matrix(.26488 0 0 2.3769 82.542 -325.11)" d="m608.36 237.67a4.672 17.173 0 1 1 -9.34 0 4.672 17.173 0 1 1 9.34 0z"/>
        </g>
      </g>
      <g id="g49756">
        <g id="g49258">
          <rect id="rect48306" y="229.36" width=".5" x="585" height="7"/>
          <rect id="rect49202" y="229.36" width=".5" x="583" height="5"/>
          <rect id="rect49204" y="229.36" width=".5" x="581" height="5"/>
          <rect id="rect49206" y="229.36" width=".5" x="579" height="5"/>
          <rect id="rect49208" y="229.36" width=".5" x="577" height="5"/>
        </g>
        <g id="g49265" transform="translate(-10)">
          <rect id="rect49267" y="229.36" width=".5" x="585" height="7"/>
          <rect id="rect49269" y="229.36" width=".5" x="583" height="5"/>
          <rect id="rect49271" y="229.36" width=".5" x="581" height="5"/>
          <rect id="rect49273" y="229.36" width=".5" x="579" height="5"/>
          <rect id="rect49275" y="229.36" width=".5" x="577" height="5"/>
        </g>
        <g id="g49289" transform="translate(-20)">
          <rect id="rect49291" y="229.36" width=".5" x="585" height="7"/>
          <rect id="rect49293" y="229.36" width=".5" x="583" height="5"/>
          <rect id="rect49295" y="229.36" width=".5" x="581" height="5"/>
          <rect id="rect49297" y="229.36" width=".5" x="579" height="5"/>
          <rect id="rect49299" y="229.36" width=".5" x="577" height="5"/>
        </g>
        <g id="g49301" transform="translate(-30)">
          <rect id="rect49303" y="229.36" width=".5" x="585" height="7"/>
          <rect id="rect49305" y="229.36" width=".5" x="583" height="5"/>
          <rect id="rect49307" y="229.36" width=".5" x="581" height="5"/>
          <rect id="rect49309" y="229.36" width=".5" x="579" height="5"/>
          <rect id="rect49311" y="229.36" width=".5" x="577" height="5"/>
        </g>
        <g id="g49313" transform="translate(-40)">
          <rect id="rect49315" y="229.36" width=".5" x="585" height="7"/>
          <rect id="rect49317" y="229.36" width=".5" x="583" height="5"/>
          <rect id="rect49319" y="229.36" width=".5" x="581" height="5"/>
          <rect id="rect49321" y="229.36" width=".5" x="579" height="5"/>
          <rect id="rect49323" y="229.36" width=".5" x="577" height="5"/>
        </g>
        <g id="g49325" transform="translate(-50)">
          <rect id="rect49327" y="229.36" width=".5" x="585" height="7"/>
          <rect id="rect49329" y="229.36" width=".5" x="583" height="5"/>
          <rect id="rect49331" y="229.36" width=".5" x="581" height="5"/>
          <rect id="rect49333" y="229.36" width=".5" x="579" height="5"/>
          <rect id="rect49335" y="229.36" width=".5" x="577" height="5"/>
        </g>
        <g id="g49337" transform="translate(-60)">
          <rect id="rect49339" y="229.36" width=".5" x="585" height="7"/>
          <rect id="rect49341" y="229.36" width=".5" x="583" height="5"/>
          <rect id="rect49343" y="229.36" width=".5" x="581" height="5"/>
          <rect id="rect49345" y="229.36" width=".5" x="579" height="5"/>
          <rect id="rect49347" y="229.36" width=".5" x="577" height="5"/>
        </g>
        <g id="g49349" transform="translate(-70)">
          <rect id="rect49351" y="229.36" width=".5" x="585" height="7"/>
          <rect id="rect49353" y="229.36" width=".5" x="583" height="5"/>
          <rect id="rect49355" y="229.36" width=".5" x="581" height="5"/>
          <rect id="rect49357" y="229.36" width=".5" x="579" height="5"/>
          <rect id="rect49359" y="229.36" width=".5" x="577" height="5"/>
        </g>
        <g id="g49361" transform="translate(-80)">
          <rect id="rect49363" y="229.36" width=".5" x="585" height="7"/>
          <rect id="rect49365" y="229.36" width=".5" x="583" height="5"/>
          <rect id="rect49367" y="229.36" width=".5" x="581" height="5"/>
          <rect id="rect49369" y="229.36" width=".5" x="579" height="5"/>
          <rect id="rect49371" y="229.36" width=".5" x="577" height="5"/>
        </g>
        <g id="g49373" transform="translate(-90)">
          <rect id="rect49375" y="229.36" width=".5" x="585" height="7"/>
          <rect id="rect49377" y="229.36" width=".5" x="583" height="5"/>
          <rect id="rect49379" y="229.36" width=".5" x="581" height="5"/>
          <rect id="rect49381" y="229.36" width=".5" x="579" height="5"/>
          <rect id="rect49383" y="229.36" width=".5" x="577" height="5"/>
        </g>
        <g id="g49385" transform="translate(-100)">
          <rect id="rect49387" y="229.36" width=".5" x="585" height="7"/>
          <rect id="rect49389" y="229.36" width=".5" x="583" height="5"/>
          <rect id="rect49391" y="229.36" width=".5" x="581" height="5"/>
          <rect id="rect49393" y="229.36" width=".5" x="579" height="5"/>
          <rect id="rect49395" y="229.36" width=".5" x="577" height="5"/>
        </g>
        <g id="g49397" transform="translate(-110)">
          <rect id="rect49399" y="229.36" width=".5" x="585" height="7"/>
          <rect id="rect49401" y="229.36" width=".5" x="583" height="5"/>
          <rect id="rect49403" y="229.36" width=".5" x="581" height="5"/>
          <rect id="rect49405" y="229.36" width=".5" x="579" height="5"/>
          <rect id="rect49407" y="229.36" width=".5" x="577" height="5"/>
        </g>
        <g id="g49409" transform="translate(-120)">
          <rect id="rect49411" y="229.36" width=".5" x="585" height="7"/>
          <rect id="rect49413" y="229.36" width=".5" x="583" height="5"/>
          <rect id="rect49415" y="229.36" width=".5" x="581" height="5"/>
          <rect id="rect49417" y="229.36" width=".5" x="579" height="5"/>
          <rect id="rect49419" y="229.36" width=".5" x="577" height="5"/>
        </g>
        <g id="g49421" transform="translate(-130)">
          <rect id="rect49423" y="229.36" width=".5" x="585" height="7"/>
          <rect id="rect49425" y="229.36" width=".5" x="583" height="5"/>
          <rect id="rect49427" y="229.36" width=".5" x="581" height="5"/>
          <rect id="rect49429" y="229.36" width=".5" x="579" height="5"/>
          <rect id="rect49431" y="229.36" width=".5" x="577" height="5"/>
        </g>
        <g id="g49433" transform="translate(-140)">
          <rect id="rect49435" y="229.36" width=".5" x="585" height="7"/>
          <rect id="rect49437" y="229.36" width=".5" x="583" height="5"/>
          <rect id="rect49439" y="229.36" width=".5" x="581" height="5"/>
          <rect id="rect49441" y="229.36" width=".5" x="579" height="5"/>
          <rect id="rect49443" y="229.36" width=".5" x="577" height="5"/>
        </g>
        <g id="g49445" transform="translate(-150)">
          <rect id="rect49447" y="229.36" width=".5" x="585" height="7"/>
          <rect id="rect49449" y="229.36" width=".5" x="583" height="5"/>
          <rect id="rect49451" y="229.36" width=".5" x="581" height="5"/>
          <rect id="rect49453" y="229.36" width=".5" x="579" height="5"/>
          <rect id="rect49455" y="229.36" width=".5" x="577" height="5"/>
        </g>
        <g id="g49457" transform="translate(-160)">
          <rect id="rect49459" y="229.36" width=".5" x="585" height="7"/>
          <rect id="rect49461" y="229.36" width=".5" x="583" height="5"/>
          <rect id="rect49463" y="229.36" width=".5" x="581" height="5"/>
          <rect id="rect49465" y="229.36" width=".5" x="579" height="5"/>
          <rect id="rect49467" y="229.36" width=".5" x="577" height="5"/>
        </g>
        <g id="g49469" transform="translate(-170)">
          <rect id="rect49471" y="229.36" width=".5" x="585" height="7"/>
          <rect id="rect49473" y="229.36" width=".5" x="583" height="5"/>
          <rect id="rect49475" y="229.36" width=".5" x="581" height="5"/>
          <rect id="rect49477" y="229.36" width=".5" x="579" height="5"/>
          <rect id="rect49479" y="229.36" width=".5" x="577" height="5"/>
        </g>
        <g id="g49481" transform="translate(-180)">
          <rect id="rect49483" y="229.36" width=".5" x="585" height="7"/>
          <rect id="rect49485" y="229.36" width=".5" x="583" height="5"/>
          <rect id="rect49487" y="229.36" width=".5" x="581" height="5"/>
          <rect id="rect49489" y="229.36" width=".5" x="579" height="5"/>
          <rect id="rect49491" y="229.36" width=".5" x="577" height="5"/>
        </g>
        <g id="g49493" transform="translate(-190)">
          <rect id="rect49495" y="229.36" width=".5" x="585" height="7"/>
          <rect id="rect49497" y="229.36" width=".5" x="583" height="5"/>
          <rect id="rect49499" y="229.36" width=".5" x="581" height="5"/>
          <rect id="rect49501" y="229.36" width=".5" x="579" height="5"/>
          <rect id="rect49503" y="229.36" width=".5" x="577" height="5"/>
        </g>
        <g id="g49505" transform="translate(-200)">
          <rect id="rect49507" y="229.36" width=".5" x="585" height="7"/>
          <rect id="rect49509" y="229.36" width=".5" x="583" height="5"/>
          <rect id="rect49511" y="229.36" width=".5" x="581" height="5"/>
          <rect id="rect49513" y="229.36" width=".5" x="579" height="5"/>
          <rect id="rect49515" y="229.36" width=".5" x="577" height="5"/>
        </g>
        <g id="g49517" transform="translate(-210)">
          <rect id="rect49519" y="229.36" width=".5" x="585" height="7"/>
          <rect id="rect49521" y="229.36" width=".5" x="583" height="5"/>
          <rect id="rect49523" y="229.36" width=".5" x="581" height="5"/>
          <rect id="rect49525" y="229.36" width=".5" x="579" height="5"/>
          <rect id="rect49527" y="229.36" width=".5" x="577" height="5"/>
        </g>
        <g id="g49529" transform="translate(-220)">
          <rect id="rect49531" y="229.36" width=".5" x="585" height="7"/>
          <rect id="rect49533" y="229.36" width=".5" x="583" height="5"/>
          <rect id="rect49535" y="229.36" width=".5" x="581" height="5"/>
          <rect id="rect49537" y="229.36" width=".5" x="579" height="5"/>
          <rect id="rect49539" y="229.36" width=".5" x="577" height="5"/>
        </g>
        <g id="g49541" transform="translate(-230)">
          <rect id="rect49543" y="229.36" width=".5" x="585" height="7"/>
          <rect id="rect49545" y="229.36" width=".5" x="583" height="5"/>
          <rect id="rect49547" y="229.36" width=".5" x="581" height="5"/>
          <rect id="rect49549" y="229.36" width=".5" x="579" height="5"/>
          <rect id="rect49551" y="229.36" width=".5" x="577" height="5"/>
        </g>
        <g id="g49553" transform="translate(-240)">
          <rect id="rect49555" y="229.36" width=".5" x="585" height="7"/>
          <rect id="rect49557" y="229.36" width=".5" x="583" height="5"/>
          <rect id="rect49559" y="229.36" width=".5" x="581" height="5"/>
          <rect id="rect49561" y="229.36" width=".5" x="579" height="5"/>
          <rect id="rect49563" y="229.36" width=".5" x="577" height="5"/>
        </g>
        <g id="g49565" transform="translate(-250)">
          <rect id="rect49567" y="229.36" width=".5" x="585" height="7"/>
          <rect id="rect49569" y="229.36" width=".5" x="583" height="5"/>
          <rect id="rect49571" y="229.36" width=".5" x="581" height="5"/>
          <rect id="rect49573" y="229.36" width=".5" x="579" height="5"/>
          <rect id="rect49575" y="229.36" width=".5" x="577" height="5"/>
        </g>
        <rect id="rect49579" y="229.36" width=".5" x="325" height="7"/>
      </g>
      <g id="g49193">
        <path id="path40114" fill="url(#linearGradient50164)" d="m242.76 200.52c0.44 1.71 0.75 19.14 0.76 39.23s-0.16 36.44-0.73 39.25h5.69c0.61-5.7 1.14-18 1.14-39.25 0-21.19-0.47-37.66-1.03-39.25l-5.83 0.02z"/>
        <path id="path23289" fill="url(#linearGradient50166)" d="m284.52 225.33v26.7l302.2 0.04 4.37-4.97v-17.57l-4.31-4.15-302.26-0.05z"/>
        <path id="path32064" fill="url(#linearGradient50168)" d="m591.09 247.1l8.41-0.03s0.53-1.84 0.53-8.57c0-8-0.55-8.98-0.55-8.98h-8.39v17.58z"/>
        <path id="path32959" fill="url(#linearGradient50170)" d="m249.56 223.18s0.19 10.75 0.19 15.62c0 4.94-0.19 15.63-0.19 15.63h34.19v-31.25h-34.19z"/>
        <g id="g34753">
          <path id="path32961" fill="url(#linearGradient50172)" d="m283.75 256.28l0.8-2.31v-28.67l-0.8-2.15v33.13z"/>
          <path id="path34749" fill="url(#linearGradient50174)" d="m283.75 254.38l0.8-2.31v-26.68l-0.8-2.15v31.14z"/>
        </g>
      </g>
    </g>
  </g>
  <metadata>
    <rdf:RDF>
      <cc:Work>
        <dc:format>image/svg+xml</dc:format>
        <dc:type rdf:resource="http://purl.org/dc/dcmitype/StillImage"/>
        <cc:license rdf:resource="http://creativecommons.org/licenses/publicdomain/"/>
        <dc:publisher>
          <cc:Agent rdf:about="http://openclipart.org/">
            <dc:title>Openclipart</dc:title>
          </cc:Agent>
        </dc:publisher>
        <dc:title>Syringe</dc:title>
        <dc:date>2006-12-05T10:00:18</dc:date>
        <dc:description>A syringe with a blue tip.</dc:description>
        <dc:source>http://openclipart.org/detail/1887/syringe-by-qtipd</dc:source>
        <dc:creator>
          <cc:Agent>
            <dc:title>qtipd</dc:title>
          </cc:Agent>
        </dc:creator>
        <dc:subject>
          <rdf:Bag>
            <rdf:li>clip art</rdf:li>
            <rdf:li>clipart</rdf:li>
            <rdf:li>hospital</rdf:li>
            <rdf:li>image</rdf:li>
            <rdf:li>media</rdf:li>
            <rdf:li>medical</rdf:li>
            <rdf:li>medicine</rdf:li>
            <rdf:li>needle</rdf:li>
            <rdf:li>png</rdf:li>
            <rdf:li>public domain</rdf:li>
            <rdf:li>shot</rdf:li>
            <rdf:li>svg</rdf:li>
            <rdf:li>syringe</rdf:li>
          </rdf:Bag>
        </dc:subject>
      </cc:Work>
      <cc:License rdf:about="http://creativecommons.org/licenses/publicdomain/">
        <cc:permits rdf:resource="http://creativecommons.org/ns#Reproduction"/>
        <cc:permits rdf:resource="http://creativecommons.org/ns#Distribution"/>
        <cc:permits rdf:resource="http://creativecommons.org/ns#DerivativeWorks"/>
      </cc:License>
    </rdf:RDF>
  </metadata>
</svg>
